avconv version 9.18-6:9.18-0ubuntu0.14.04.1+fdkaac, Copyright (c) 2000-2014 the Libav developers
  built on Apr 10 2015 23:18:58 with gcc 4.8 (Ubuntu 4.8.2-19ubuntu1)
Input #0, image2, from 'imagenes/Cubo%02d.png':
  Duration: 00:00:04.00, start: 0.000000, bitrate: N/A
    Stream #0.0: Video: png, rgb24, 320x240, 25 fps, 25 tbr, 25 tbn
[libx264 @ 0x104a5a0] using cpu capabilities: MMX2 SSE2Fast SSSE3 SSE4.2 AVX
[libx264 @ 0x104a5a0] profile High, level 1.3
Output #0, avi, to 'result/cub_umh_4.avi':
  Metadata:
    ISFT            : Lavf54.20.4
    Stream #0.0: Video: libx264, yuv420p, 320x240, q=-1--1, 25 tbn, 25 tbc
Stream mapping:
  Stream #0:0 -> #0:0 (png -> libx264)
Press ctrl-c to stop encoding
frame=  100 fps=  0 q=32765.0 Lsize=     487kB time=3.92 bitrate=1016.8kbits/s    
video:214kB audio:0kB global headers:0kB muxing overhead 127.661461%
[libx264 @ 0x104a5a0] frame I:17    Avg QP:25.89  size:  6574
[libx264 @ 0x104a5a0] frame P:83    Avg QP:27.90  size:  4558
[libx264 @ 0x104a5a0] mb I  I16..4:  9.8% 81.4%  8.8%
[libx264 @ 0x104a5a0] mb P  I16..4:  5.0% 45.7%  9.8%  P16..4: 17.7% 12.9%  4.6%  0.0%  0.0%    skip: 4.3%
[libx264 @ 0x104a5a0] 8x8 transform intra:77.0% inter:78.1%
[libx264 @ 0x104a5a0] coded y,uvDC,uvAC intra: 76.1% 95.5% 82.7% inter: 46.5% 61.5% 18.0%
[libx264 @ 0x104a5a0] i16 v,h,dc,p: 10% 39% 14% 37%
[libx264 @ 0x104a5a0] i8 v,h,dc,ddl,ddr,vr,hd,vl,hu: 20% 14% 20%  6%  6%  9%  5% 13%  8%
[libx264 @ 0x104a5a0] i4 v,h,dc,ddl,ddr,vr,hd,vl,hu: 24% 11% 15%  9%  7% 10%  6% 14%  5%
[libx264 @ 0x104a5a0] i8c dc,h,v,p: 43% 18% 23% 17%
[libx264 @ 0x104a5a0] Weighted P-Frames: Y:19.3% UV:15.7%
[libx264 @ 0x104a5a0] kb/s:980.19
bench: utime=1.354s maxrss=48600kB
